<svg width="49" height="49" viewBox="0 0 49 49" fill="none" xmlns="http://www.w3.org/2000/svg">
<path d="M38.718 18.468C37.9283 18.468 37.3005 19.0958 37.3005 19.8855V23.085C37.3005 30.2535 31.4685 36.0855 24.3 36.0855C17.1315 36.0855 11.2995 30.2535 11.2995 23.085V19.8653C11.2995 19.0755 10.6718 18.4478 9.88201 18.4478C9.09226 18.4478 8.46451 19.0755 8.46451 19.8653V23.0648C8.46451 31.3065 14.8028 38.0903 22.8825 38.8193V43.1325C22.8825 43.9222 23.5103 44.55 24.3 44.55C25.0898 44.55 25.7175 43.9222 25.7175 43.1325V38.8193C33.777 38.1105 40.1355 31.3065 40.1355 23.0648V19.8653C40.1153 19.0958 39.4875 18.468 38.718 18.468Z" fill="white"/>
<path d="M24.3 4.05005C19.359 4.05005 15.3495 8.05955 15.3495 13.0005V23.3685C15.3495 28.3095 19.359 32.319 24.3 32.319C29.241 32.319 33.2505 28.3095 33.2505 23.3685V13.0005C33.2505 8.05955 29.241 4.05005 24.3 4.05005ZM26.9527 18.1238C26.811 18.6503 26.3452 18.9945 25.8187 18.9945C25.7175 18.9945 25.6162 18.9743 25.515 18.954C24.7252 18.7313 23.895 18.7313 23.1052 18.954C22.4572 19.1363 21.8295 18.7515 21.6675 18.1238C21.4852 17.496 21.87 16.848 22.4977 16.686C23.6925 16.362 24.948 16.362 26.1427 16.686C26.7502 16.848 27.1147 17.496 26.9527 18.1238ZM28.026 14.1953C27.8437 14.6813 27.3982 14.9648 26.9122 14.9648C26.7705 14.9648 26.649 14.9445 26.5072 14.904C25.0897 14.3775 23.5102 14.3775 22.0927 14.904C21.4852 15.1268 20.7967 14.8028 20.574 14.1953C20.3512 13.5878 20.6752 12.8993 21.2827 12.6968C23.2267 11.988 25.3732 11.988 27.3172 12.6968C27.9247 12.9195 28.2487 13.5878 28.026 14.1953Z" fill="white"/>
</svg>
